<?xml version="1.0" encoding="utf-8"?>
<?xml-stylesheet type="text/xsl" href="rss1.xsl"?>
<rss version="2.0" xmlns:atom="http://www.w3.org/2005/Atom" xmlns:content="http://purl.org/rss/1.0/modules/content/" xmlns:dc="http://purl.org/dc/elements/1.1/" xmlns:media="http://search.yahoo.com/mrss/">
<channel>
 <title>Getty</title>
 <link>http://www.gettyimg.com/</link>
 <atom:link href="http://www.gettyimg.com/" rel="self" type="application/rss+xml" />

 
                <item>
                <title><![CDATA[【Music Videos】Richard Marx - Right Here Waiting (1080p 5.1) (Clean)]]></title>
                <link><![CDATA[https://sharemania.us/threads/richard-marx-right-here-waiting-1080p-5-1-clean.247281/]]></link>
                <description><![CDATA[<article>
<blockquote class="messageText SelectQuoteContainer ugc baseHtml">
<img src="https://i.ibb.co/zxgbbdL/Richard-Marx-Right-Here-Waiting-1080p-5-1-mp4-thumbs-2024-06-17-22-10-12.jpg" class="bbCodeImage LbImage" alt="[​IMG]" data-url="https://i.ibb.co/zxgbbdL/Richard-Marx-Right-Here-Waiting-1080p-5-1-mp4-thumbs-2024-06-17-22-10-12.jpg" style=""> <br>
<br>
<div class="ToggleTriggerAnchor bbCodeSpoilerContainer">
<button type="button" class="button bbCodeSpoilerButton ToggleTrigger Tooltip JsOnly" data-target="> .SpoilerTarget"><span>Spoiler: <span class="SpoilerTitle">MediaInfo</span></span></button>
<div class="SpoilerTarget bbCodeSpoilerText">Richard Marx - Right Here Waiting (1080p 5.1).mp4<br>
Format : MPEG-4<br>
Format profile : Base Media / Version 2<br>
Codec ID : mp42 (mp42/mp41)<br>
File size : 319 MiB<br>
Duration : 4 min 22 s<br>
Overall bit rate mode : Variable<br>
Overall bit rate : 10.2 Mb/s<br>
Frame rate : 25.000 FPS<br>
Encoded date : 2024-06-18 01:27:46 UTC<br>
Tagged date : 2024-06-18 01:57:54 UTC<br>
TIM : 00:00:00:00<br>
TSC : 25<br>
TSZ : 1<br>
<br>
Video<br>
ID : 1<br>
Format : AVC<br>
Format/Info : Advanced Video Codec<br>
Format profile : Main@L4.1<br>
Format settings : CABAC / 4 Ref Frames<br>
Format settings, CABAC : Yes<br>
Format settings, Reference : 4 frames<br>
Codec ID : avc1<br>
Codec ID/Info : Advanced Video Coding<br>
Duration : 4 min 22 s<br>
Bit rate : 9 860 kb/s<br>
Width : 1 920 pixels<br>
Height : 1 080 pixels<br>
Display aspect ratio : 16:9<br>
Frame rate mode : Constant<br>
Frame rate : 25.000 FPS<br>
Color space : YUV<br>
Chroma subsampling : 4:2:0<br>
Bit depth : 8 bits<br>
Scan type : Progressive<br>
Bits/(Pixel*Frame) : 0.190<br>
Stream size : 309 MiB (97%)<br>
Language : English<br>
Encoded date : 2024-06-18 01:27:56 UTC<br>
Tagged date : 2024-06-18 01:27:56 UTC<br>
Color range : Limited<br>
Color primaries : BT.709<br>
Transfer characteristics : BT.709<br>
Matrix coefficients : BT.709<br>
Codec configuration box : avcC<br>
<br>
Audio<br>
ID : 2<br>
Format : AAC LC<br>
Format/Info : Advanced Audio Codec Low Complexity<br>
Codec ID : mp4a-40-2<br>
Duration : 4 min 22 s<br>
Source duration : 4 min 22 s<br>
Bit rate mode : Variable<br>
Bit rate : 317 kb/s<br>
Maximum bit rate : 519 kb/s<br>
Channel(s) : 6 channels<br>
Channel layout : C L R Ls Rs LFE<br>
Sampling rate : 48.0 kHz<br>
Frame rate : 46.875 FPS (1024 SPF)<br>
Compression mode : Lossy<br>
Stream size : 9.94 MiB (3%)<br>
Source stream size : 9.94 MiB (3%)<br>
Language : English<br>
Encoded date : 2024-06-18 01:27:53 UTC<br>
Tagged date : 2024-06-18 01:27:53 UTC</div>
</div><br>
<div class="bbCodeBlock bbCodeVfcHH HiddenContent">
<div class="attribution type">Hidden Content:</div>
<blockquote>You must reply before you can see the hidden data contained here.</blockquote>
</div>
<div class="messageTextEndMarker">&nbsp;</div>
</blockquote>
</article>]]></description>
                <author><![CDATA[DJ-RoGeRs-BS]]></author>
                </item>

                
                <item>
                <title><![CDATA[【Albums (lossless)】ALAC - SZA - SOS]]></title>
                <link><![CDATA[https://sharemania.us/threads/sza-sos.247280/]]></link>
                <description><![CDATA[<article>
<blockquote class="messageText SelectQuoteContainer ugc baseHtml">
<img src="https://s3.amazonaws.com/singleapp.co.images/artwork04e2f498-7c7a-4b8a-971f-c776dacd7477-LARGE.jpg" class="bbCodeImage LbImage" alt="[​IMG]" data-url="https://s3.amazonaws.com/singleapp.co.images/artwork04e2f498-7c7a-4b8a-971f-c776dacd7477-LARGE.jpg" style=""><br>
Online Exclusive with PSA + Open Arms (SOLO)<br>
<div class="bbCodeBlock bbCodeVfcHH HiddenContent">
<div class="attribution type">Hidden Content:</div>
<blockquote>You must either reply or click 'Like' to see the hidden information contained here.</blockquote>
</div>
<div class="messageTextEndMarker">&nbsp;</div>
</blockquote>
</article>]]></description>
                <author><![CDATA[Kweennayy]]></author>
                </item>

                </channel></rss>